<?xml version="1.0" encoding="UTF-8"?><svg id="Layer_1" xmlns="http://www.w3.org/2000/svg" viewBox="0 0 1648 345.67"><defs><style>.cls-1{fill:#191919;}</style></defs><path class="cls-1" d="M39.76,166.11v4.42h46.39v34.39h-46.39v136.01H0v-187.75c0-31.56,21.77-51.44,53.01-51.44h47.96v36.29h-33.13c-21.46,0-28.09,8.52-28.09,28.09Z"/><path class="cls-1" d="M224.36,170.53v37.55h-48.28c-21.46,0-28.08,8.84-28.08,28.09v104.76h-39.76v-117.39c0-31.56,21.46-53.01,53.01-53.01h63.11Z"/><path class="cls-1" d="M415.58,255.41v85.51h-39.76v-29.03c-8.84,17.67-29.35,33.77-54.59,33.77-49.23,0-83.62-35.97-83.62-90.25,0-50.49,34.08-89.94,88.04-89.94s89.93,37.24,89.93,89.94ZM375.82,255.41c0-29.98-20.2-50.49-50.17-50.49-32.19,0-46.7,25.25-46.7,50.49s14.52,50.81,46.7,50.81c29.98,0,50.17-24.3,50.17-50.81Z"/><path class="cls-1" d="M556.62,279.39h41.34c0,42.29-30.29,66.27-72.89,66.27-52.38,0-82.36-38.5-82.36-90.25s29.98-89.94,82.36-89.94c42.6,0,72.89,23.98,72.89,66.27h-41.34c0-19.25-13.25-27.14-33.13-27.14-24.61,0-39.44,16.73-39.44,50.81s14.83,51.12,39.44,51.12c19.88,0,33.13-7.89,33.13-27.14Z"/><path class="cls-1" d="M703.57,158.07v115.71c0,12.91,3.62,21.18,9.81,26.34,6.2,3.62,14.98,5.68,27.38,5.68,5.68,0,9.81,0,13.95-1.04l14.46-2.58v40.29l-10.33,1.55c-5.17.52-11.36,1.04-18.08,1.04-23.25,0-43.39-5.68-57.85-16.53-16.53-12.4-24.79-30.48-24.79-54.76v-124.49c-33.06-5.16-65.6,2.58-65.6,2.58v-38.74C671.54,78.52,665.34,0,665.34,0h41.32c0,58.37-25.31,95.05-52.17,113.13,0,0,63.54-3.62,93.5,24.28v44.94c-22.73-21.18-44.42-24.28-44.42-24.28Z"/><path class="cls-1" d="M806.13,124.77c0-12.62,10.1-23.04,22.72-23.04s22.72,10.41,22.72,23.04-10.1,22.72-22.72,22.72-22.72-10.41-22.72-22.72ZM808.97,340.93v-170.4h39.76v170.4h-39.76Z"/><path class="cls-1" d="M1058.25,255.73c0,49.54-38.5,89.94-90.25,89.94s-89.94-40.39-89.94-89.94,38.5-90.25,89.94-90.25,90.25,40.39,90.25,90.25ZM1017.23,255.73c0-27.45-17.04-53.01-49.23-53.01s-48.91,25.56-48.91,53.01,17.04,52.7,48.91,52.7,49.23-25.56,49.23-52.7Z"/><path class="cls-1" d="M1252.94,236.17v104.76h-39.44v-97.82c0-27.45-19.25-42.29-40.08-42.29-23.04,0-45.76,19.25-45.76,52.7v87.41h-39.76v-170.71h39.76v35.34c12.94-24.93,35.34-40.08,59.64-40.08,34.4,0,65.64,23.67,65.64,70.69Z"/><path class="cls-1" d="M1459.3,255.41v85.51h-39.76v-29.03c-8.83,17.67-29.35,33.77-54.59,33.77-49.23,0-83.62-35.97-83.62-90.25,0-50.49,34.08-89.94,88.04-89.94s89.93,37.24,89.93,89.94ZM1419.55,255.41c0-29.98-20.2-50.49-50.17-50.49-32.19,0-46.7,25.25-46.7,50.49s14.52,50.81,46.7,50.81c29.98,0,50.17-24.3,50.17-50.81Z"/><path class="cls-1" d="M1648,340.93h-47.96l-38.18-54.9-35.34,54.9h-47.97l59.33-89.62-56.17-80.78h47.97l35.03,50.17,32.19-50.17h47.65l-55.86,84.89,59.33,85.51Z"/></svg>